<svg width="2000" height="300" viewBox="0 0 2000 300" fill="none" xmlns="http://www.w3.org/2000/svg">
<path d="M218.325 113.485H242.171V214.279H218.325V172.198H186.463V214.279H162.617V113.485H186.463V153.362H218.325V113.485ZM349.778 195.443V237.324H327.735V214.279H274.232V237.324H252.19V195.443H259.604C262.41 189.832 264.48 182.885 265.816 174.603C267.286 166.187 268.288 157.37 268.822 148.152C269.356 138.934 269.623 130.251 269.623 122.102V113.485H339.157V195.443H349.778ZM315.312 195.443V132.321H290.063V135.327C290.063 141.071 289.796 147.684 289.261 155.165C288.861 162.646 288.059 169.994 286.857 177.208C285.654 184.288 283.918 190.366 281.647 195.443H315.312ZM436.746 207.466C433.272 209.871 428.73 211.941 423.119 213.678C417.509 215.415 410.896 216.283 403.281 216.283C388.052 216.283 376.296 212.008 368.013 203.458C359.73 194.775 355.589 181.683 355.589 164.183C355.589 154.03 357.125 145.012 360.198 137.131C363.404 129.115 368.147 122.836 374.425 118.294C380.838 113.752 388.853 111.481 398.472 111.481C406.487 111.481 413.434 113.084 419.312 116.29C425.19 119.497 429.732 124.64 432.938 131.72C436.144 138.667 437.748 148.018 437.748 159.774V172.398H380.237C380.771 180.815 382.909 187.094 386.649 191.235C390.39 195.376 396.602 197.447 405.285 197.447C411.163 197.447 416.907 196.512 422.518 194.641C428.263 192.771 433.005 190.567 436.746 188.029V207.466ZM398.071 130.317C386.849 130.317 380.905 138.466 380.237 154.765H413.501V152.761C413.501 146.482 412.365 141.205 410.094 136.93C407.957 132.522 403.949 130.317 398.071 130.317ZM512.892 214.279L477.624 165.585V214.279H453.778V113.485H477.624V160.776L511.289 113.485H535.336L501.671 160.776L539.945 214.279H512.892ZM585.833 216.283C569.936 216.283 558.046 211.808 550.164 202.857C542.416 193.773 538.542 180.815 538.542 163.982C538.542 153.696 540.279 144.612 543.752 136.73C547.225 128.848 552.369 122.703 559.182 118.294C566.128 113.752 574.678 111.481 584.831 111.481C590.709 111.481 595.786 111.949 600.061 112.884C604.469 113.685 607.942 114.821 610.481 116.29V136.529C608.076 135.06 604.803 133.657 600.662 132.321C596.52 130.985 592.112 130.317 587.436 130.317C579.688 130.317 573.676 133.123 569.401 138.734C565.26 144.211 563.189 152.427 563.189 163.381C563.189 173.801 565.06 182.084 568.8 188.229C572.541 194.374 578.686 197.447 587.236 197.447C592.312 197.447 596.721 196.846 600.461 195.643C604.202 194.441 607.542 192.771 610.481 190.634V210.071C604.736 214.212 596.52 216.283 585.833 216.283ZM118.332 214.279V93.8471H107.511C97.6252 93.8471 90.0773 96.1181 84.8672 100.66C79.7908 105.202 77.2525 111.214 77.2525 118.695C77.2525 124.306 78.0541 129.115 79.6572 133.123C81.2603 136.997 83.6649 140.537 86.8711 143.743C90.2109 146.816 94.3522 150.022 99.295 153.362L111.519 161.578L76.2506 214.279H50L81.661 167.188C72.5769 160.643 65.5633 153.829 60.6205 146.749C55.6776 139.669 53.2062 130.785 53.2062 120.098C53.2062 106.605 57.7483 95.7173 66.8325 87.4347C76.0502 79.1521 89.5429 75.0107 107.31 75.0107H142.578V214.279H118.332Z" fill="black"/>
<path d="M892.763 75.0107H984.54V214.279H960.293V93.8471H917.01V214.279H892.763V75.0107Z" fill="black"/>
<path d="M1017.33 245.339C1012.65 245.339 1009.31 244.738 1007.31 243.536C1005.3 242.467 1004.3 241.933 1004.3 241.933V222.495C1006.97 225.167 1010.58 226.503 1015.12 226.503C1018.46 226.503 1021.13 225.768 1023.14 224.299C1025.14 222.963 1026.81 221.092 1028.15 218.688L993.481 113.485H1018.53L1040.77 189.231L1063.01 113.485H1086.06L1054.6 208.869C1052.33 215.682 1049.72 221.827 1046.78 227.304C1043.84 232.915 1040.04 237.324 1035.36 240.53C1030.82 243.736 1024.81 245.339 1017.33 245.339Z" fill="black"/>
<path d="M1171.01 132.321H1142.95V214.279H1119.11V132.321H1091.05V113.485H1171.01V132.321Z" fill="black"/>
<path d="M1256.21 207.466C1252.73 209.871 1248.19 211.941 1242.58 213.678C1236.97 215.415 1230.36 216.283 1222.74 216.283C1207.51 216.283 1195.76 212.008 1187.47 203.458C1179.19 194.775 1175.05 181.683 1175.05 164.183C1175.05 154.03 1176.59 145.012 1179.66 137.131C1182.86 129.115 1187.61 122.836 1193.89 118.294C1200.3 113.752 1208.31 111.481 1217.93 111.481C1225.95 111.481 1232.89 113.084 1238.77 116.29C1244.65 119.497 1249.19 124.64 1252.4 131.72C1255.61 138.667 1257.21 148.018 1257.21 159.774V172.398H1199.7C1200.23 180.815 1202.37 187.094 1206.11 191.235C1209.85 195.376 1216.06 197.447 1224.75 197.447C1230.62 197.447 1236.37 196.512 1241.98 194.641C1247.72 192.771 1252.47 190.567 1256.21 188.029V207.466ZM1217.53 130.317C1206.31 130.317 1200.37 138.466 1199.7 154.765H1232.96V152.761C1232.96 146.482 1231.83 141.205 1229.55 136.93C1227.42 132.522 1223.41 130.317 1217.53 130.317Z" fill="black"/>
<path d="M1273.18 214.279V113.485H1297.03V195.443H1323.08V113.485H1346.93V195.443H1372.98V113.485H1396.82V214.279H1273.18Z" fill="black"/>
<path d="M1493.97 207.466C1490.5 209.871 1485.95 211.941 1480.34 213.678C1474.73 215.415 1468.12 216.283 1460.5 216.283C1445.28 216.283 1433.52 212.008 1425.24 203.458C1416.95 194.775 1412.81 181.683 1412.81 164.183C1412.81 154.03 1414.35 145.012 1417.42 137.131C1420.63 129.115 1425.37 122.836 1431.65 118.294C1438.06 113.752 1446.08 111.481 1455.7 111.481C1463.71 111.481 1470.66 113.084 1476.54 116.29C1482.41 119.497 1486.96 124.64 1490.16 131.72C1493.37 138.667 1494.97 148.018 1494.97 159.774V172.398H1437.46C1437.99 180.815 1440.13 187.094 1443.87 191.235C1447.61 195.376 1453.83 197.447 1462.51 197.447C1468.39 197.447 1474.13 196.512 1479.74 194.641C1485.49 192.771 1490.23 190.567 1493.97 188.029V207.466ZM1455.29 130.317C1444.07 130.317 1438.13 138.466 1437.46 154.765H1470.72V152.761C1470.72 146.482 1469.59 141.205 1467.32 136.93C1465.18 132.522 1461.17 130.317 1455.29 130.317Z" fill="black"/>
<path d="M1554.23 216.283C1538.33 216.283 1526.44 211.808 1518.56 202.857C1510.81 193.773 1506.94 180.815 1506.94 163.982C1506.94 153.696 1508.68 144.612 1512.15 136.73C1515.62 128.848 1520.77 122.703 1527.58 118.294C1534.53 113.752 1543.08 111.481 1553.23 111.481C1559.11 111.481 1564.18 111.949 1568.46 112.884C1572.87 113.685 1576.34 114.821 1578.88 116.29V136.529C1576.47 135.06 1573.2 133.657 1569.06 132.321C1564.92 130.985 1560.51 130.317 1555.83 130.317C1548.09 130.317 1542.07 133.123 1537.8 138.734C1533.66 144.211 1531.59 152.427 1531.59 163.381C1531.59 173.801 1533.46 182.084 1537.2 188.229C1540.94 194.374 1547.08 197.447 1555.63 197.447C1560.71 197.447 1565.12 196.846 1568.86 195.643C1572.6 194.441 1575.94 192.771 1578.88 190.634V210.071C1573.13 214.212 1564.92 216.283 1554.23 216.283Z" fill="black"/>
<path d="M1667.86 132.321H1639.81V214.279H1615.96V132.321H1587.91V113.485H1667.86V132.321Z" fill="black"/>
<path d="M1723.66 214.279H1681.98V113.485H1724.06C1746.37 113.485 1757.53 122.035 1757.53 139.134C1757.53 145.146 1755.92 150.022 1752.72 153.763C1749.51 157.503 1745.24 160.175 1739.89 161.778C1746.57 162.98 1751.78 165.519 1755.52 169.393C1759.4 173.133 1761.33 178.343 1761.33 185.023C1761.33 194.641 1757.99 201.922 1751.31 206.865C1744.77 211.808 1735.55 214.279 1723.66 214.279ZM1721.26 131.119H1705.22V153.963H1720.45C1725 153.963 1728.47 152.961 1730.87 150.957C1733.41 148.953 1734.68 146.215 1734.68 142.741C1734.68 134.993 1730.21 131.119 1721.26 131.119ZM1721.66 171.397H1705.22V196.645H1721.66C1726.47 196.645 1730.27 195.643 1733.08 193.639C1735.88 191.502 1737.29 188.095 1737.29 183.42C1737.29 175.404 1732.08 171.397 1721.66 171.397Z" fill="black"/>
<path d="M1777.28 113.485H1800.33V175.805L1836.8 113.485H1858.04V214.279H1834.99V151.959L1798.52 214.279H1777.28V113.485Z" fill="black"/>
<path d="M1871.05 214.279L1893.69 176.206C1887.28 174.068 1882.34 170.595 1878.86 165.786C1875.39 160.843 1873.65 154.564 1873.65 146.949C1873.65 136.129 1877.39 127.846 1884.87 122.102C1892.36 116.357 1901.91 113.485 1913.53 113.485H1950V214.279H1926.15V181.416H1914.73L1895.49 214.279H1871.05ZM1915.33 132.321C1910.12 132.321 1905.91 133.524 1902.71 135.928C1899.5 138.333 1897.9 142.274 1897.9 147.751C1897.9 153.495 1899.37 157.637 1902.31 160.175C1905.25 162.713 1909.39 163.982 1914.73 163.982H1926.15V132.321H1915.33Z" fill="black"/>
<mask id="mask0_475_3831" style="mask-type:luminance" maskUnits="userSpaceOnUse" x="656" y="54" width="186" height="185">
<path d="M841.057 146.255C841.057 95.2932 799.746 54 748.807 54C697.869 54 656.552 95.3163 656.552 146.255C656.552 197.193 697.845 238.51 748.807 238.51C799.769 238.51 841.062 197.193 841.062 146.255H841.057Z" fill="white"/>
</mask>
<g mask="url(#mask0_475_3831)">
<path d="M841.059 146.255C841.059 95.2932 799.747 54 748.809 54C697.87 54 656.554 95.3162 656.554 146.255C656.554 197.193 697.847 238.51 748.809 238.51C799.771 238.51 841.064 197.193 841.064 146.255H841.059Z" fill="#7F5FFF"/>
<path d="M843.352 102.37C828.275 82.4648 787.988 59.0858 751.37 66.8141C741.595 68.879 742.75 73.6878 739.761 78.2426C735.618 84.5574 723.298 87.1535 722.402 90.0637C721.131 94.2489 727.201 101.423 730.67 102.716C736.2 104.754 741.027 95.7503 747.901 94.6416C754.724 93.5329 780.103 95.8519 784.334 102.578C790.631 109.585 789.91 120.922 786.141 122.497C782.094 124.188 772.749 114.815 766.337 115.535C762.729 115.951 755.694 120.58 751.532 120.095C747.947 119.679 745.61 112.02 742.487 109.779C739.641 107.742 723.543 111.258 719.399 113.133C714.355 115.401 702.908 131.616 702.603 137.445C702.233 144.222 716.041 157.896 721.616 158.981C727.469 160.113 737.831 154.773 741.489 157.29C745.859 160.321 750.65 211.675 760.202 211.744C766.263 211.791 782.824 189.169 785.415 184.771C789.046 178.572 786.824 168.696 788.099 165.296C789.693 161.041 799.759 155.443 800.151 150.929C800.521 146.883 786.968 135.246 790.321 132.84C792.982 130.941 807.279 137.792 811.926 134.923C815.894 132.475 816.042 120.146 821.137 110.897C822.103 109.142 823.946 108.029 825.951 108.029C830.76 108.029 836.068 111.239 841.87 134.775C843.117 139.473 851.45 128.664 851.45 128.664L843.348 102.379L843.352 102.37Z" fill="#FEE14A"/>
<path d="M800.847 179.865C798.07 179.149 794.855 186.319 793.931 189.026C793.1 191.525 791.455 198.648 793.931 199.549C796.939 200.634 801.147 192.772 802.052 189.719C802.745 187.335 803.253 180.489 800.851 179.889" fill="#FEE14A"/>
<path d="M657.127 156.616C661.22 169.176 677.231 165.43 680.007 173.828C683.13 183.289 672.394 192.31 679.06 206.654C665.317 220.138 649.957 185.598 649.957 185.598L657.127 156.634V156.611V156.616Z" fill="#FEE14A"/>
</g>
</svg>
